{"glyphs":{"0":{"ha":778,"x_min":47,"x_max":697,"o":"m 364 963 q 383 965 372 968 l 424 958 q 461 949 449 953 q 492 940 474 946 q 527 924 510 933 q 564 899 544 914 q 661 759 626 851 q 697 564 696 667 q 678 353 697 461 q 558 72 642 182 q 333 -54 463 -54 q 118 94 199 -54 q 47 411 50 222 q 64 586 46 501 q 117 749 82 672 q 214 882 153 825 q 353 961 275 939 q 364 963 358 963 m 367 914 q 216 810 279 889 q 124 630 153 732 q 96 411 96 528 q 163 118 97 236 q 333 -4 228 -4 q 519 103 438 -4 q 629 363 596 203 q 638 656 663 513 q 533 860 613 800 q 503 880 517 872 q 475 893 490 888 q 449 901 460 899 q 415 908 439 903 q 374 917 390 914 q 367 914 371 915 z "},"1":{"ha":297,"x_min":42,"x_max":217,"o":"m 51 888 q 65 901 58 893 q 82 920 72 908 q 99 939 92 932 q 175 981 136 981 q 199 965 190 981 q 204 953 203 961 q 210 924 208 942 q 214 844 213 894 q 214 715 215 757 q 214 569 210 660 q 217 421 217 456 q 211 233 217 411 q 213 49 208 122 q 206 31 213 39 q 189 23 199 24 q 172 29 179 22 q 163 46 164 36 q 161 235 158 121 q 167 421 167 411 q 164 568 167 456 q 164 718 161 668 q 164 843 167 757 q 161 918 164 892 q 160 926 160 922 q 135 906 149 921 q 122 889 132 901 q 101 866 111 876 q 82 849 92 856 q 64 844 74 843 q 48 853 54 844 q 42 871 42 861 q 51 888 43 881 z "},"2":{"ha":751,"x_min":43,"x_max":671,"o":"m 50 772 q 281 938 161 886 q 549 883 458 1014 q 589 781 576 842 q 594 669 601 721 q 547 551 585 600 q 449 463 508 503 q 353 406 426 449 q 247 336 281 364 q 232 322 239 328 q 219 307 225 315 q 208 294 213 299 q 198 279 204 289 q 190 265 192 269 q 180 246 188 260 q 169 226 172 232 q 128 132 150 192 q 110 75 114 97 q 108 60 108 65 l 113 60 q 122 62 114 60 q 138 65 129 64 q 151 67 146 67 q 293 75 197 68 q 439 83 389 82 q 544 78 482 83 l 647 67 q 665 58 658 65 q 670 40 671 50 q 662 23 669 29 q 644 17 654 17 q 540 28 643 17 q 439 33 476 35 q 297 25 392 33 q 151 17 200 18 q 138 14 147 17 l 121 11 q 68 25 86 6 q 58 56 60 38 q 61 85 58 68 q 81 149 67 111 q 125 251 104 213 q 136 269 129 256 q 147 289 143 283 l 157 306 q 169 322 164 317 l 181 339 q 196 356 188 349 l 214 372 q 330 449 250 403 q 421 504 410 496 q 506 579 475 539 q 544 675 538 619 q 541 771 551 719 q 507 856 531 822 q 300 892 442 951 q 86 739 189 844 q 69 731 79 731 q 51 738 58 731 q 43 755 43 744 q 50 772 43 765 z "},"3":{"ha":710,"x_min":47,"x_max":613,"o":"m 97 174 q 213 75 144 108 q 350 44 281 42 q 478 89 421 47 q 565 211 536 131 q 565 335 593 285 q 488 401 544 375 q 388 433 447 421 q 350 440 385 435 q 338 444 342 443 q 331 446 333 444 q 324 450 326 449 q 315 468 317 457 q 325 489 314 481 l 331 492 q 333 493 332 493 q 338 494 335 494 q 349 497 340 494 q 383 507 367 501 q 457 538 436 522 q 528 639 504 572 q 536 760 553 706 q 385 879 508 851 q 274 885 329 890 q 179 861 219 881 q 164 849 176 860 l 135 819 l 90 771 q 73 763 83 764 q 56 769 63 763 q 48 787 49 776 q 54 804 47 797 l 100 854 l 129 885 q 157 906 147 901 q 270 935 206 929 q 396 928 335 940 q 515 874 464 913 q 583 774 565 836 q 575 623 604 704 q 488 499 546 542 q 438 472 468 485 q 508 446 478 461 q 610 357 581 413 q 613 194 646 289 q 508 49 578 100 q 353 -6 439 -1 q 192 31 271 -8 q 58 143 113 69 q 53 162 51 151 q 63 178 54 172 q 81 183 71 185 q 97 174 92 182 z "},"4":{"ha":801,"x_min":22,"x_max":721,"o":"m 71 451 q 69 453 71 454 l 71 451 m 539 964 q 568 511 565 788 l 568 433 q 696 440 674 440 q 714 433 707 440 q 721 415 721 425 q 713 397 721 404 q 696 390 706 390 q 568 385 674 392 q 575 61 568 172 q 568 44 575 51 q 551 35 561 36 q 534 42 542 35 q 525 58 526 49 q 519 382 519 169 q 351 374 419 375 q 150 378 225 369 q 75 393 104 383 q 25 431 38 407 q 22 444 22 436 l 22 453 q 26 472 24 460 q 36 521 29 490 l 49 568 l 53 583 l 53 588 l 53 589 q 83 783 65 657 l 107 963 q 118 978 110 972 q 136 983 126 985 q 152 972 146 981 q 157 954 158 964 q 131 776 149 903 q 103 581 114 649 q 100 572 101 579 l 96 556 l 85 510 q 75 463 78 479 q 72 450 72 454 q 92 440 79 444 q 156 428 115 432 q 350 422 226 419 q 519 431 419 425 q 518 510 519 478 q 489 956 517 783 q 494 974 488 967 q 510 984 500 982 q 528 980 521 986 q 539 964 536 974 z "},"5":{"ha":797,"x_min":49,"x_max":717,"o":"m 99 953 q 416 955 210 949 q 692 961 622 961 q 709 953 701 961 q 717 936 717 946 q 709 919 717 926 q 692 911 701 911 q 427 906 615 911 q 138 901 239 900 q 126 711 136 835 q 115 561 117 588 q 107 526 114 550 l 129 536 q 210 569 190 564 q 488 569 364 617 q 661 354 631 514 q 650 193 678 269 q 563 67 621 117 q 427 -8 504 18 q 271 -31 350 -35 q 164 -5 213 -26 q 60 56 115 17 q 49 72 51 63 q 53 90 47 82 q 69 101 60 99 q 88 97 79 103 q 183 41 140 60 q 274 19 225 22 q 455 54 369 14 q 586 174 540 94 q 614 346 632 253 q 469 522 588 478 q 224 522 363 564 q 150 492 207 517 l 113 475 q 99 471 104 472 q 92 469 96 469 q 86 468 89 468 q 72 472 78 468 q 57 531 47 490 q 60 544 58 538 q 64 556 63 551 q 65 564 65 560 q 76 713 67 589 q 88 906 86 838 q 72 929 72 911 q 80 946 72 939 q 99 953 88 953 z "},"6":{"ha":681,"x_min":18,"x_max":599,"o":"m 64 447 q 68 263 54 353 q 172 60 89 125 q 390 36 261 -8 q 505 142 460 60 q 549 318 550 224 q 499 478 549 417 q 336 544 443 544 q 213 521 267 544 q 96 446 158 497 q 64 447 79 432 m 69 488 q 196 568 135 542 q 336 594 257 594 q 536 508 465 594 q 599 319 599 435 q 547 116 600 213 q 407 -11 494 19 q 142 21 251 -64 q 18 254 42 97 q 60 652 -11 451 q 286 965 132 853 q 305 970 294 972 q 322 960 315 968 q 326 942 328 953 q 317 926 324 932 q 153 738 217 854 q 69 488 90 621 z "},"7":{"ha":757,"x_min":18,"x_max":674,"o":"m 42 924 q 500 935 250 935 l 581 935 q 589 935 585 935 q 601 938 593 936 q 615 942 608 940 q 672 921 658 950 q 674 897 678 910 q 668 883 672 890 q 649 853 661 871 q 589 775 629 825 q 485 646 485 647 q 356 395 400 517 q 267 85 311 274 q 256 69 265 75 q 238 66 247 64 q 222 77 228 68 q 219 96 217 86 q 310 413 264 288 q 443 674 356 539 q 550 806 444 676 q 608 881 589 854 l 615 890 q 581 885 592 885 l 500 885 q 44 874 251 885 q 27 881 35 874 q 19 897 19 888 q 25 915 18 907 q 42 924 32 922 z "},"8":{"ha":717,"x_min":39,"x_max":626,"o":"m 332 968 q 342 983 333 978 q 360 988 350 989 q 435 975 432 975 q 501 929 453 968 q 588 832 560 882 q 608 713 615 782 q 581 626 603 664 q 525 561 560 588 q 457 519 490 535 q 378 486 424 503 l 382 485 q 442 473 418 479 q 498 455 467 467 q 554 422 529 443 q 597 371 579 401 q 624 294 608 354 q 626 132 646 201 q 550 15 606 63 q 420 -45 496 -29 q 261 -43 344 -61 q 148 10 199 -31 q 71 106 97 50 q 40 226 44 161 q 64 351 35 292 q 185 467 96 422 l 210 478 q 150 522 175 496 q 107 731 83 593 q 142 840 117 789 q 203 918 167 892 q 264 953 238 944 q 332 968 290 963 m 282 453 q 207 422 236 438 q 108 332 133 385 q 93 194 82 261 q 154 72 104 126 q 272 4 204 18 q 410 3 346 -10 q 518 53 474 17 q 576 281 615 133 q 556 346 563 335 q 487 406 529 388 q 374 436 444 425 q 282 453 301 449 m 371 924 q 336 919 358 922 q 306 914 314 915 q 285 908 299 913 q 258 897 271 904 q 233 879 247 890 q 186 817 207 858 q 156 722 164 774 q 186 556 136 608 q 279 504 218 521 l 347 528 q 497 603 447 563 q 558 718 550 643 q 543 810 565 771 q 471 890 521 850 q 418 928 428 925 q 386 933 413 931 q 371 924 381 926 z "},"9":{"ha":689,"x_min":21,"x_max":601,"o":"m 533 469 q 551 560 544 511 q 536 771 571 689 q 385 897 497 864 q 318 908 361 904 q 254 910 272 914 q 167 847 210 897 q 94 728 122 797 q 68 596 67 660 q 101 497 69 532 q 290 432 168 425 q 500 488 388 436 q 518 488 508 492 q 532 475 528 485 q 533 469 533 472 m 528 449 q 519 443 525 444 q 293 382 399 388 q 65 464 147 375 q 24 547 35 497 q 22 646 14 596 q 49 746 29 696 q 131 882 79 822 q 243 957 183 942 q 324 958 268 964 q 399 944 371 953 q 582 790 533 904 q 601 551 622 696 q 136 -32 536 121 q 117 -31 126 -35 q 105 -17 108 -26 q 106 2 101 -7 q 119 15 110 11 q 528 449 439 136 z "}," ":{"ha":417,"x_min":0,"x_max":0,"o":""},"!":{"ha":269,"x_min":115,"x_max":189,"o":"m 165 975 q 189 347 189 729 q 181 330 189 338 q 164 322 174 322 q 147 330 154 322 q 139 347 139 338 q 115 969 139 726 q 122 988 115 981 q 138 997 128 996 q 156 991 149 997 q 165 975 164 985 m 181 97 q 185 93 181 97 q 189 79 189 89 q 181 62 189 69 q 164 54 174 54 q 147 62 154 54 q 139 79 139 69 q 147 97 139 89 q 164 104 154 104 q 181 97 174 104 z "},"\"":{"ha":418,"x_min":46,"x_max":338,"o":"m 96 964 l 104 647 q 97 630 104 638 q 80 622 90 622 q 62 629 69 622 q 54 647 54 636 q 46 961 51 810 q 53 980 46 972 q 70 988 60 988 q 88 981 81 988 q 96 964 96 974 m 331 969 q 338 647 338 836 q 330 630 338 638 q 313 622 322 622 q 295 630 303 622 q 288 647 288 638 q 281 967 288 836 q 288 984 281 976 q 304 992 294 992 q 322 986 314 993 q 331 969 329 979 z "},"#":{"ha":1046,"x_min":15,"x_max":965,"o":"m 618 396 q 651 690 639 558 q 315 679 474 688 l 296 517 q 274 369 288 451 q 425 381 300 371 l 618 396 m 613 346 q 425 331 546 340 l 265 319 q 224 61 226 81 q 213 45 221 51 q 195 41 206 39 q 178 51 185 43 q 174 69 172 58 l 215 315 q 53 306 126 310 q 35 313 43 306 q 27 329 28 319 q 33 347 26 339 q 50 356 40 354 l 224 365 q 246 522 236 446 l 265 676 q 43 660 151 669 q 24 666 32 660 q 16 683 17 672 q 22 701 15 693 q 38 710 28 708 q 271 726 151 719 q 310 969 289 871 q 319 985 311 979 q 338 988 328 990 q 354 978 349 986 q 357 958 360 969 q 321 729 338 864 q 656 740 479 736 q 667 910 663 828 q 676 926 668 919 q 693 933 683 933 q 710 924 703 932 q 717 907 717 917 q 706 742 713 828 q 940 743 817 743 q 958 735 950 743 q 965 718 965 728 q 958 701 965 708 q 940 693 950 693 q 701 692 814 693 q 668 399 689 560 q 928 410 813 407 q 945 403 938 410 q 953 385 953 396 q 946 367 953 375 q 928 360 939 360 q 663 349 810 358 q 619 33 651 263 q 610 16 618 22 q 591 11 601 10 q 574 21 581 13 q 569 39 568 29 l 613 346 z "},"$":{"ha":885,"x_min":13,"x_max":799,"o":"m 378 611 q 376 960 375 808 q 163 854 251 949 q 121 799 142 832 q 96 742 97 763 q 147 653 88 682 q 278 622 188 633 q 378 611 294 619 m 428 556 q 431 323 428 499 q 435 51 433 147 q 547 75 493 58 q 716 188 660 114 q 744 363 772 263 q 557 531 708 486 q 428 556 506 546 m 425 1010 q 750 883 592 1003 q 760 867 758 878 q 755 849 761 857 q 738 839 749 840 q 719 844 728 838 q 425 960 574 954 q 426 606 425 807 q 571 578 514 596 q 792 376 749 526 q 799 255 808 310 q 753 156 789 200 q 670 80 718 111 q 563 29 622 49 q 435 1 501 8 q 436 -179 436 -94 q 428 -197 436 -189 q 411 -204 421 -204 q 394 -197 401 -204 q 386 -179 386 -189 l 386 -1 q 103 79 208 -6 q 78 103 89 90 q 58 130 68 114 q 42 156 47 146 l 28 183 q 14 208 17 203 q 13 226 10 217 q 24 241 15 236 q 43 243 33 246 q 58 231 53 240 q 72 206 61 224 l 86 178 q 99 158 90 171 q 115 135 107 144 q 133 118 124 126 q 385 47 225 43 q 382 323 385 144 q 378 561 379 501 q 272 572 290 571 q 125 610 172 586 q 46 747 35 654 q 79 825 50 779 q 126 888 103 863 q 376 1008 231 999 q 378 1154 376 1085 q 385 1172 378 1165 q 403 1179 393 1179 q 421 1172 414 1179 q 428 1154 428 1164 l 425 1010 z "},"%":{"ha":992,"x_min":88,"x_max":911,"o":"m 218 964 q 242 978 225 979 q 258 978 249 976 l 278 978 q 324 969 306 978 q 401 899 375 949 q 425 792 426 849 q 399 685 425 735 q 325 613 372 636 q 181 611 246 581 q 88 711 115 642 q 90 853 58 782 q 218 964 121 924 m 669 353 q 640 333 650 344 q 590 251 606 300 q 585 157 575 201 q 625 84 593 111 q 713 58 657 57 q 787 83 756 58 q 833 149 818 108 q 840 230 847 186 q 806 304 833 274 l 792 317 q 778 328 786 324 q 766 336 771 333 q 751 342 761 339 q 738 346 742 344 q 722 349 735 347 q 707 350 710 350 q 688 351 704 350 q 669 353 672 353 m 738 396 q 842 338 799 385 q 889 238 879 296 q 879 132 899 181 q 817 44 861 79 q 713 8 774 10 q 593 47 639 7 q 536 147 547 86 q 543 265 525 204 q 604 369 561 326 q 629 388 615 379 q 656 404 636 406 q 661 403 658 404 l 679 411 q 701 421 693 417 q 719 422 710 425 q 735 410 729 419 q 738 396 738 403 m 244 921 q 136 835 161 889 q 133 729 111 782 q 201 656 154 678 q 303 657 249 633 q 356 710 336 672 q 376 793 375 747 q 358 874 376 838 q 304 925 339 910 q 278 928 296 928 l 272 928 l 265 928 l 260 928 l 254 928 q 244 921 250 924 m 101 69 l 868 978 q 885 985 875 985 q 902 979 894 986 q 910 963 910 972 q 904 944 911 953 l 140 39 q 123 30 133 31 q 105 35 113 29 q 97 52 97 42 q 101 69 96 63 z "},"&":{"ha":839,"x_min":58,"x_max":758,"o":"m 367 604 l 328 571 q 189 439 236 492 q 106 128 47 279 q 189 26 133 53 q 314 15 244 0 q 444 74 381 29 q 544 174 508 118 q 572 222 560 196 q 519 329 556 253 q 461 446 483 406 q 369 599 446 475 l 367 604 m 626 225 q 751 38 688 110 q 758 19 758 29 q 749 3 757 10 q 732 -3 742 -4 q 715 4 722 -3 q 600 169 656 71 q 586 146 593 158 q 473 33 544 82 q 325 -33 401 -17 q 166 -17 238 -51 q 58 111 94 17 q 153 472 -10 289 q 296 608 199 524 l 340 647 q 283 761 304 710 q 260 833 269 793 q 250 881 253 860 q 256 924 249 907 q 361 1006 282 983 q 494 988 443 1028 q 538 828 564 933 q 463 692 518 749 q 404 638 440 668 l 411 625 q 506 468 489 499 q 596 286 518 446 q 628 468 618 358 q 637 484 629 478 q 655 490 644 490 q 672 481 665 489 q 678 463 678 474 q 626 225 664 318 m 379 681 q 426 725 407 706 q 490 840 474 774 q 464 949 508 914 q 374 958 432 974 q 300 904 317 942 q 300 885 299 900 q 307 846 301 868 q 328 781 317 808 q 379 681 347 735 z "},"'":{"ha":233,"x_min":99,"x_max":153,"o":"m 149 963 q 153 721 144 861 q 146 703 153 711 q 129 695 139 696 q 112 701 119 694 q 103 718 104 708 q 99 965 96 860 q 106 982 99 975 q 124 989 114 989 q 142 981 135 989 q 149 963 149 974 z "},"(":{"ha":353,"x_min":72,"x_max":272,"o":"m 254 1032 q 121 639 156 863 q 124 192 86 415 q 268 -194 163 -32 q 272 -213 274 -203 q 261 -229 269 -224 q 242 -233 253 -235 q 226 -222 232 -231 q 76 182 115 -51 q 72 648 36 415 q 213 1057 108 881 q 227 1068 217 1065 q 246 1066 238 1071 q 257 1051 254 1061 q 254 1032 260 1040 z "},")":{"ha":339,"x_min":15,"x_max":256,"o":"m 131 1064 q 255 408 276 757 q 60 -233 233 58 q 45 -244 56 -242 q 26 -242 35 -247 q 15 -227 18 -237 q 18 -208 13 -217 q 206 410 185 74 q 86 1042 226 747 q 85 1061 82 1051 q 98 1075 89 1071 q 117 1076 107 1079 q 131 1064 126 1072 z "},"*":{"ha":640,"x_min":7,"x_max":558,"o":"m 258 847 q 526 913 375 858 q 545 911 536 915 q 558 897 554 907 q 557 878 561 888 q 543 865 553 869 q 271 799 390 811 q 265 774 276 785 l 467 563 q 474 545 474 556 q 466 528 474 535 q 448 521 458 521 q 431 529 438 521 l 231 738 l 229 738 l 228 738 q 60 532 132 644 q 44 522 54 524 q 26 525 35 519 q 15 540 17 531 q 18 560 13 550 q 203 782 96 681 q 200 806 201 793 q 28 831 121 814 q 12 842 18 833 q 8 860 6 850 q 18 876 10 869 q 36 881 26 882 q 197 856 124 864 q 192 999 193 915 q 199 1016 192 1008 q 216 1024 206 1024 q 234 1017 226 1024 q 242 999 242 1010 q 247 850 243 911 l 251 850 q 258 847 254 849 z "},"+":{"ha":765,"x_min":35,"x_max":685,"o":"m 343 401 q 61 392 160 396 q 43 399 50 392 q 35 416 36 406 q 42 433 35 426 q 58 442 49 440 q 343 451 158 446 q 336 726 342 569 q 343 745 336 738 q 360 753 350 753 q 378 746 371 753 q 386 729 386 739 q 393 453 392 572 q 658 463 561 458 q 676 456 669 463 q 684 438 683 449 q 678 421 685 428 q 661 413 671 414 q 393 403 563 408 q 389 108 394 244 q 381 92 388 99 q 363 85 374 85 q 346 93 353 86 q 339 111 339 100 q 343 401 344 246 z "},",":{"ha":303,"x_min":82,"x_max":221,"o":"m 219 97 q 176 -14 217 89 q 128 -125 150 -83 q 114 -137 124 -135 q 94 -136 104 -140 q 82 -122 85 -132 q 83 -103 79 -112 q 131 4 104 -61 q 175 117 168 100 q 188 130 178 126 q 207 130 197 133 q 220 117 217 126 q 219 97 224 107 z "},"-":{"ha":372,"x_min":24,"x_max":292,"o":"m 47 403 q 153 408 79 404 q 265 414 226 411 q 283 407 275 414 q 291 390 290 400 q 285 373 292 381 q 268 364 278 365 q 156 358 229 363 q 50 353 82 354 q 33 360 40 353 q 24 376 25 367 q 31 394 24 386 q 47 403 38 401 z "},".":{"ha":257,"x_min":126,"x_max":176,"o":"m 169 101 q 173 97 169 101 q 176 83 176 93 q 169 66 176 74 q 151 58 161 58 q 134 66 142 58 q 126 83 126 74 q 134 101 126 93 q 151 108 142 108 q 169 101 161 108 z "},"/":{"ha":457,"x_min":11,"x_max":375,"o":"m 374 961 q 299 746 339 879 l 269 647 q 232 524 247 569 q 136 242 199 418 l 58 17 q 45 3 54 7 q 26 2 36 -1 q 13 15 17 6 q 11 33 8 24 l 89 257 q 185 538 153 439 q 222 661 199 581 l 251 760 q 329 981 292 893 q 342 994 332 990 q 361 994 351 997 q 374 981 371 990 q 374 961 378 971 z "},":":{"ha":293,"x_min":154,"x_max":213,"o":"m 205 641 q 209 637 205 641 q 213 624 213 633 q 205 606 213 614 q 188 599 197 599 q 170 606 178 599 q 163 624 163 614 q 170 641 163 633 q 188 649 178 649 q 205 641 197 649 m 197 92 q 200 89 197 92 q 204 75 204 85 q 197 58 204 65 q 179 50 189 50 q 162 58 169 50 q 154 75 154 65 q 162 92 154 85 q 179 100 169 100 q 197 92 189 100 z "},";":{"ha":300,"x_min":82,"x_max":218,"o":"m 218 100 l 175 -7 q 128 -115 150 -72 q 113 -128 122 -125 q 94 -126 103 -131 q 82 -111 85 -121 q 83 -93 79 -101 q 129 11 104 -54 l 171 119 q 185 133 175 129 q 204 133 194 136 q 217 119 214 129 q 218 100 221 110 m 191 656 q 195 652 191 656 q 199 639 199 649 q 191 622 199 629 q 174 614 183 614 q 156 622 164 614 q 149 639 149 629 q 156 656 149 649 q 174 664 164 664 q 191 656 183 664 z "},"<":{"ha":821,"x_min":65,"x_max":740,"o":"m 731 667 q 692 636 726 664 l 650 606 q 611 576 644 600 l 569 544 l 529 517 q 485 486 500 496 l 443 461 q 397 433 417 444 l 354 411 q 307 390 331 400 q 179 342 276 376 l 129 322 q 171 300 144 313 l 222 278 q 235 273 228 276 q 247 268 243 269 q 253 265 251 267 l 465 165 q 676 72 590 104 q 690 59 686 68 q 691 40 694 50 q 678 26 688 31 q 660 25 669 22 q 443 121 574 58 l 233 221 q 228 222 231 221 l 217 226 q 204 232 210 229 q 150 256 172 244 q 97 285 117 271 q 65 335 65 308 q 72 350 65 343 l 76 354 q 81 357 78 356 q 88 360 83 358 q 106 367 93 363 l 163 388 q 288 435 257 422 q 426 510 353 464 q 546 589 500 556 l 674 685 q 700 706 692 699 q 719 711 708 713 q 735 701 729 710 q 740 683 742 693 q 731 667 739 672 z "},"=":{"ha":810,"x_min":24,"x_max":729,"o":"m 58 546 q 383 543 156 549 q 703 544 596 538 q 720 538 713 544 q 728 521 728 531 q 722 503 729 511 q 706 494 715 496 q 382 493 589 488 q 61 496 143 500 q 42 503 50 496 q 35 520 35 510 q 42 538 35 531 q 58 546 49 546 m 51 189 q 213 176 124 179 q 352 172 303 172 q 524 175 401 172 q 672 179 646 178 q 690 172 682 179 q 697 155 697 165 q 690 137 697 144 q 672 129 683 129 q 525 126 649 129 q 352 122 401 122 q 211 126 303 122 q 46 139 119 131 q 28 149 35 140 q 24 167 22 157 q 33 184 25 178 q 51 189 42 190 z "},">":{"ha":778,"x_min":-25,"x_max":697,"o":"m 38 682 q 292 554 118 649 q 543 432 449 469 l 614 404 q 622 401 617 403 q 635 399 626 400 q 650 397 643 399 q 697 356 696 390 q 686 326 697 340 q 668 308 679 318 q 619 278 650 294 q 539 238 572 251 q 414 197 501 224 q 293 157 328 171 q 153 89 253 139 q 7 21 64 42 q -12 22 -3 18 q -24 36 -21 26 q -24 55 -28 46 q -10 68 -19 64 q 131 132 43 88 q 274 201 244 189 q 400 244 317 221 q 522 285 485 269 q 596 321 551 296 q 638 347 622 336 l 639 349 q 594 357 604 354 l 526 385 q 268 511 426 426 q 18 638 99 603 q 5 650 8 640 q 5 669 1 660 q 18 683 8 679 q 38 682 28 686 z "},"?":{"ha":761,"x_min":108,"x_max":678,"o":"m 118 856 l 178 906 q 234 943 194 919 q 310 976 274 967 q 450 990 381 997 q 575 949 521 983 q 660 850 632 913 q 678 706 688 788 q 554 467 664 593 q 499 406 539 449 q 435 333 460 363 q 392 272 411 303 q 377 261 388 264 q 358 263 367 258 q 347 278 350 268 q 350 297 344 289 q 396 363 369 331 q 464 440 422 396 l 517 499 q 628 711 617 614 q 549 907 644 846 q 324 929 456 967 q 259 901 293 921 q 208 867 225 881 l 149 817 q 131 812 142 811 q 115 820 121 813 q 109 838 108 828 q 118 856 110 849 m 378 59 q 382 55 378 59 q 386 42 386 51 q 378 24 386 32 q 361 17 371 17 q 344 24 351 17 q 336 42 336 32 q 344 59 336 51 q 361 67 351 67 q 378 59 371 67 z "},"@":{"ha":989,"x_min":42,"x_max":907,"o":"m 524 707 q 420 680 464 699 q 338 622 376 661 q 282 537 306 592 q 256 431 258 482 q 276 346 254 376 q 360 310 301 313 q 506 438 450 306 q 540 536 524 476 q 550 571 549 569 q 554 583 551 579 q 558 592 556 588 q 575 603 564 600 q 600 593 590 604 q 606 579 604 588 q 607 565 607 574 q 603 531 606 558 q 601 433 597 471 q 602 413 601 425 q 603 396 603 401 q 606 383 604 390 q 611 371 608 376 q 710 339 644 317 q 768 372 740 350 q 813 419 796 394 q 858 567 854 482 q 831 726 861 650 q 741 867 799 807 q 613 947 683 926 q 397 938 535 971 q 272 885 308 915 q 155 716 204 826 q 90 481 106 606 q 104 244 75 351 q 210 82 133 138 q 450 36 297 19 q 704 106 561 50 q 722 104 713 108 q 735 91 732 100 q 735 72 739 82 q 721 58 731 63 q 456 -12 572 1 q 182 43 283 -32 q 58 228 90 108 q 42 488 25 349 q 110 737 57 618 q 239 921 164 856 q 386 985 285 961 q 626 994 536 1022 q 776 901 711 969 q 876 744 842 833 q 907 564 911 661 q 854 392 903 467 q 799 333 833 361 q 726 293 764 306 q 642 288 688 275 q 569 346 597 300 q 553 419 556 368 l 551 418 q 357 260 481 254 q 238 317 276 264 q 207 433 203 361 q 237 556 210 493 q 301 658 264 619 q 399 725 347 703 q 518 757 450 747 q 536 752 528 758 q 546 735 544 746 q 541 717 547 725 q 524 707 535 708 z "},"A":{"ha":914,"x_min":6,"x_max":832,"o":"m 231 393 q 596 539 279 411 q 515 733 554 646 l 461 851 l 440 899 q 438 889 439 893 q 374 735 413 819 q 231 393 332 643 m 204 331 q 51 -4 119 125 q 36 -17 46 -14 q 17 -15 26 -19 q 6 0 8 -10 q 7 18 3 10 q 147 321 71 139 q 136 333 139 325 q 138 352 133 343 q 151 365 142 361 l 167 371 l 172 382 q 329 754 292 674 q 390 906 365 835 q 392 913 392 908 q 393 926 393 918 q 394 943 393 935 q 401 971 396 961 q 436 992 413 992 q 456 982 449 992 q 457 979 457 981 q 458 978 458 979 l 458 976 l 460 975 l 463 968 l 474 944 l 507 872 l 560 753 q 642 558 606 647 l 651 563 q 671 561 661 565 q 684 548 681 557 q 683 529 688 539 q 671 515 679 519 l 660 511 l 739 300 q 832 60 797 143 q 831 40 835 50 q 817 27 826 31 q 799 28 808 24 q 785 40 789 32 l 693 281 l 614 493 q 204 331 276 357 z "},"B":{"ha":840,"x_min":39,"x_max":753,"o":"m 114 915 q 104 436 113 715 q 111 439 107 438 q 244 469 160 444 q 410 526 329 493 q 561 606 504 565 q 631 688 622 649 q 529 851 650 783 q 310 918 429 908 q 114 915 246 924 m 550 539 q 557 538 553 539 q 684 454 632 513 q 753 327 736 396 q 747 185 769 258 q 664 57 725 111 q 379 -18 576 -19 q 88 24 226 -15 q 81 26 85 25 q 65 19 75 21 q 48 26 56 19 q 39 43 40 33 q 42 236 35 119 q 54 426 54 404 q 64 925 64 718 q 60 938 60 931 q 65 956 60 947 q 89 971 72 971 q 104 965 97 971 q 313 968 249 974 q 554 894 444 957 q 678 676 706 808 q 589 565 667 619 q 550 539 571 551 m 468 497 l 428 481 q 258 421 346 446 q 117 389 169 396 q 103 392 110 389 q 99 342 101 368 q 94 283 97 315 q 92 233 94 267 q 88 71 85 136 q 101 71 94 74 q 379 32 233 33 q 631 93 558 31 q 709 236 699 153 q 673 391 719 319 q 540 490 626 463 q 521 494 531 493 q 495 496 511 496 q 468 497 479 496 z "},"C":{"ha":858,"x_min":19,"x_max":778,"o":"m 736 829 q 325 892 513 1029 q 185 720 244 832 q 94 475 125 608 q 92 463 94 471 q 72 263 61 324 q 246 97 99 135 q 383 84 314 81 q 513 108 453 88 q 566 132 538 117 q 608 156 594 147 l 658 192 q 704 225 696 219 q 722 228 713 231 q 738 218 732 226 q 742 200 744 210 q 732 183 740 190 q 689 152 728 181 q 635 114 650 124 q 588 88 619 104 q 529 61 557 71 q 385 35 461 39 q 233 49 310 31 q 97 120 153 69 q 25 254 40 171 q 21 277 22 265 q 19 300 19 289 q 20 326 19 311 q 22 349 21 340 q 24 374 22 358 q 28 397 26 390 l 33 422 q 38 444 36 439 q 42 466 39 449 q 47 486 46 483 q 142 746 78 626 q 296 931 207 865 q 435 993 363 981 q 595 975 508 1006 q 769 865 682 944 q 777 849 776 858 q 771 831 778 839 q 754 823 764 824 q 736 829 744 822 z "},"D":{"ha":896,"x_min":56,"x_max":813,"o":"m 106 922 q 119 367 129 718 q 116 289 118 339 q 113 210 114 239 q 113 138 111 181 q 119 58 114 96 l 119 56 q 122 54 121 54 q 240 -4 222 1 q 371 -14 278 -17 q 597 51 506 -11 q 732 217 689 114 q 764 436 774 315 q 689 667 753 557 q 614 761 646 739 q 540 801 583 783 q 464 827 497 818 q 375 849 431 836 q 292 871 319 863 q 186 906 260 879 q 101 932 132 924 q 106 922 104 928 m 96 985 q 203 951 135 975 q 306 918 274 926 l 385 899 q 477 875 442 885 q 560 846 513 865 q 642 803 608 826 q 731 692 683 772 q 812 441 800 574 q 778 199 824 308 q 624 10 729 82 q 371 -64 519 -61 q 226 -51 272 -65 q 100 10 204 -44 q 86 32 86 17 q 69 53 72 38 q 64 136 65 92 q 63 211 63 181 q 67 292 64 242 q 69 369 69 343 q 56 917 79 717 q 74 943 54 938 q 67 967 63 953 q 78 982 69 976 q 96 985 86 988 z "},"E":{"ha":789,"x_min":46,"x_max":708,"o":"m 111 72 q 126 71 117 71 q 174 71 144 69 q 207 72 190 71 q 235 73 224 72 q 249 74 247 74 q 467 69 313 75 q 682 69 611 64 q 699 63 692 69 q 708 46 707 56 q 701 28 708 36 q 685 19 694 21 q 465 19 606 15 q 249 24 293 25 l 236 22 q 208 22 225 22 q 175 21 190 21 l 125 21 q 104 22 113 22 q 83 31 90 25 q 51 88 60 49 q 46 156 44 115 q 50 222 46 182 q 54 271 54 263 q 61 378 56 306 q 68 481 68 446 q 64 697 69 558 q 57 917 57 871 q 65 934 57 926 q 82 942 72 942 q 99 934 92 942 q 107 917 107 926 l 107 914 l 107 911 q 385 958 218 950 q 658 942 553 965 q 675 932 669 940 q 678 913 681 924 q 668 897 676 903 q 650 894 660 892 q 376 908 543 917 q 107 858 210 899 q 114 700 108 815 q 118 546 118 604 q 202 555 157 551 q 281 560 247 558 q 369 563 315 563 q 447 564 422 564 l 535 564 l 614 564 q 631 556 624 564 q 639 539 639 549 q 631 522 639 529 q 614 514 624 514 l 533 514 l 446 514 q 367 513 421 514 q 279 510 313 513 q 201 505 246 508 q 118 496 157 501 l 118 481 q 111 372 117 443 q 104 268 104 303 q 100 218 104 258 q 94 156 96 176 q 99 99 94 119 q 111 72 103 81 z "},"F":{"ha":808,"x_min":61,"x_max":728,"o":"m 128 482 q 142 43 138 143 q 135 24 142 32 q 117 17 128 17 q 99 24 107 17 q 92 40 92 31 l 81 453 q 61 946 71 772 q 68 963 61 956 q 85 972 75 971 q 102 965 94 972 q 111 949 110 958 l 111 939 q 707 965 382 1015 q 723 955 717 963 q 727 937 729 947 q 717 920 725 926 q 699 915 710 914 q 114 889 378 965 q 126 531 121 744 q 257 548 215 543 q 374 558 299 553 q 513 557 450 563 q 636 535 575 551 q 651 524 646 532 q 653 505 656 515 q 642 490 650 494 q 622 488 633 485 q 508 508 567 503 q 374 508 449 514 q 259 499 299 503 q 128 482 219 494 z "},"G":{"ha":904,"x_min":-18,"x_max":824,"o":"m 781 861 q 661 947 721 922 q 514 972 601 972 q 153 796 279 972 q 33 388 40 639 q 33 285 32 325 q 49 195 35 246 q 90 113 63 144 q 381 64 192 -8 q 531 152 460 94 q 639 269 601 210 q 701 403 660 304 q 731 486 722 454 q 736 511 735 501 q 726 510 732 511 q 707 506 722 510 q 682 501 692 503 q 536 489 614 497 l 365 472 q 221 457 271 463 q 202 463 210 457 q 194 480 194 469 q 199 498 193 490 q 215 507 206 506 q 361 521 267 511 l 533 539 q 679 551 611 546 q 696 554 685 551 q 719 558 713 558 q 776 543 757 564 q 786 507 788 531 q 778 472 785 493 q 747 385 768 438 q 681 244 704 282 q 562 114 639 176 q 397 18 485 51 q 276 -11 335 -6 q 156 6 217 -17 q 51 79 96 28 q 10 152 26 111 q -10 232 -6 193 q -17 313 -15 271 q -17 388 -19 356 q 113 825 -10 656 q 514 1022 254 1022 q 680 993 611 1022 q 817 894 749 964 q 824 877 824 888 q 816 860 824 867 q 798 853 808 853 q 781 861 788 853 z "},"H":{"ha":936,"x_min":68,"x_max":856,"o":"m 826 971 q 844 831 839 907 q 849 689 850 754 q 849 547 849 624 q 851 540 850 544 q 849 524 853 532 q 849 451 847 483 q 852 288 849 431 q 856 69 856 144 q 848 52 856 60 q 831 44 840 44 q 813 52 821 44 q 806 69 806 60 q 802 287 806 144 q 799 451 799 429 l 799 507 q 436 453 671 485 l 122 408 q 129 31 124 186 q 122 12 129 19 q 105 4 115 4 q 87 11 94 4 q 79 28 79 18 q 72 529 72 206 q 68 960 71 853 q 75 977 68 969 q 92 985 82 985 q 110 978 103 985 q 118 960 118 971 q 121 458 119 878 q 431 502 193 469 q 799 557 669 535 q 799 694 799 631 q 795 828 800 757 q 779 963 790 900 q 782 981 776 972 q 798 991 788 989 q 817 988 808 993 q 826 971 825 982 z "},"I":{"ha":261,"x_min":131,"x_max":181,"o":"m 181 976 q 181 10 131 519 q 174 -9 181 -1 q 158 -17 168 -17 q 140 -12 147 -18 q 131 4 132 -6 q 131 982 82 519 q 140 998 132 992 q 158 1003 149 1004 q 174 994 168 1003 q 181 976 181 986 z "},"J":{"ha":624,"x_min":36,"x_max":540,"o":"m 519 969 q 539 721 533 860 q 539 422 546 579 q 507 176 532 268 q 419 22 479 74 q 286 -25 361 -29 q 150 28 215 -21 q 39 156 83 76 q 36 175 33 165 q 48 190 39 185 q 67 192 57 194 q 81 181 76 189 q 177 69 121 110 q 289 25 233 28 q 389 60 343 21 q 460 190 435 100 q 490 426 483 275 q 490 717 497 578 q 469 964 483 857 q 474 982 468 974 q 491 992 481 990 q 510 987 501 993 q 519 969 518 981 z "},"K":{"ha":828,"x_min":76,"x_max":747,"o":"m 165 501 l 149 489 q 158 46 158 244 q 151 28 158 36 q 133 21 143 21 q 116 28 124 21 q 108 46 108 36 q 76 957 108 351 q 83 974 76 967 q 100 983 90 982 q 117 976 110 983 q 126 960 125 969 q 146 553 140 689 l 151 558 q 167 564 158 564 q 649 958 383 728 q 667 965 657 965 q 684 956 678 964 q 690 938 690 949 q 682 922 689 928 q 204 531 421 694 l 296 419 q 385 322 329 379 q 486 231 440 264 q 607 153 532 197 q 735 76 731 79 q 747 61 744 71 q 743 42 749 51 q 728 31 738 33 q 710 35 718 29 q 582 110 706 38 q 456 192 504 156 q 350 288 408 226 q 258 389 292 349 l 165 501 z "},"L":{"ha":763,"x_min":83,"x_max":681,"o":"m 133 963 q 165 256 133 714 q 168 139 165 253 q 169 68 168 92 l 169 51 l 176 51 q 229 51 196 50 q 388 67 288 54 q 650 108 592 93 q 669 106 660 111 q 681 92 678 101 q 678 73 683 82 q 664 61 674 64 q 394 17 599 43 q 232 1 294 4 q 172 1 194 0 q 151 4 160 3 q 129 17 136 8 l 122 29 l 122 33 q 121 42 122 36 q 119 67 121 50 q 118 138 119 81 q 115 253 115 251 q 83 963 83 713 q 91 980 83 972 q 108 988 99 988 q 126 980 118 988 q 133 963 133 972 z "},"M":{"ha":1182,"x_min":21,"x_max":1100,"o":"m 21 26 q 78 197 50 101 q 122 348 107 292 q 169 531 138 404 l 208 692 l 236 810 l 256 883 q 264 910 261 900 q 267 919 265 915 q 271 925 269 922 q 293 935 281 935 q 311 925 304 933 q 316 919 314 922 q 319 908 318 915 q 326 883 322 900 q 343 811 333 858 l 353 761 q 361 716 358 733 q 365 696 364 699 q 425 438 374 665 q 494 189 461 278 q 519 104 501 168 l 526 121 q 553 189 546 168 q 632 447 582 274 q 710 708 685 632 l 749 822 l 774 892 q 782 914 778 907 q 785 922 783 919 q 786 925 786 924 q 789 929 788 928 q 808 939 794 939 q 831 928 821 939 q 838 917 833 924 q 849 892 843 908 q 871 821 858 867 q 901 706 879 794 q 931 597 907 688 l 961 478 l 989 374 q 1024 257 1010 299 l 1058 156 q 1100 44 1079 96 q 1099 25 1103 35 q 1086 12 1096 15 q 1067 12 1076 8 q 1053 25 1057 15 q 1011 139 1032 78 l 976 242 q 942 360 963 285 q 914 467 921 436 l 882 586 q 854 694 858 675 q 824 808 833 776 l 811 850 l 796 806 l 757 692 q 681 433 744 654 q 600 172 632 265 q 571 101 592 150 q 550 54 558 71 q 540 36 544 43 q 533 29 538 32 q 514 19 525 19 q 493 29 501 19 q 489 38 490 33 q 483 51 486 43 q 472 88 479 63 q 447 172 454 154 q 376 428 414 261 q 318 682 325 654 q 314 703 317 686 l 304 750 l 294 801 l 290 819 l 285 797 l 256 681 l 217 519 l 169 335 q 126 181 156 278 q 68 10 97 85 q 55 -4 64 0 q 36 -5 46 -8 q 22 8 26 -1 q 21 26 18 17 z "},"N":{"ha":968,"x_min":71,"x_max":888,"o":"m 81 13 q 71 393 67 268 q 79 506 72 421 q 83 615 83 574 q 90 732 83 658 q 100 846 99 821 q 101 922 100 847 q 104 950 103 940 q 108 964 106 958 q 131 981 115 979 q 189 953 158 983 q 232 897 208 933 q 268 838 247 875 q 292 800 288 806 l 386 672 l 489 533 l 576 408 q 667 267 628 332 q 689 231 675 254 l 721 172 l 751 115 q 793 42 778 67 l 794 40 q 804 94 800 61 q 810 204 804 101 q 838 960 838 718 q 845 977 838 969 q 863 985 853 985 q 880 977 872 985 q 888 960 888 969 q 860 201 888 717 q 853 90 854 97 q 840 22 849 47 q 829 -6 836 6 q 801 -25 818 -22 q 782 -22 792 -28 q 776 -17 779 -21 q 768 -8 772 -14 q 751 17 761 0 q 708 92 736 42 q 678 147 696 113 l 644 206 l 625 242 q 535 382 586 307 l 447 506 l 346 644 l 253 769 q 226 813 246 778 q 192 869 204 850 q 154 918 171 901 l 151 921 q 150 843 150 847 q 140 728 149 817 q 133 615 133 654 q 128 501 133 572 q 121 390 122 418 q 131 15 115 268 q 124 -2 131 6 q 107 -10 117 -10 q 90 -4 97 -11 q 81 13 82 3 z "},"O":{"ha":1025,"x_min":61,"x_max":911,"o":"m 493 996 q 517 1007 501 1008 q 888 838 786 982 q 911 431 988 692 q 864 306 893 367 q 794 183 836 244 q 701 74 751 121 q 585 -6 651 26 q 447 -42 519 -37 q 232 17 343 -47 q 61 306 89 99 q 61 482 49 392 q 106 646 74 571 q 264 868 160 769 q 493 996 369 967 m 522 950 q 304 838 407 931 q 150 626 201 746 q 111 475 122 558 q 110 313 99 392 q 257 58 135 129 q 444 8 354 3 q 592 53 521 13 q 713 158 661 94 q 803 294 765 222 q 864 444 842 365 q 846 808 933 682 q 533 956 763 929 q 522 950 528 951 z "},"P":{"ha":819,"x_min":57,"x_max":732,"o":"m 135 425 q 281 422 197 421 q 421 436 364 422 q 553 489 492 454 q 650 568 615 524 q 642 794 731 671 q 593 845 628 811 q 543 889 558 879 q 356 953 458 939 q 118 960 253 967 q 131 669 118 932 q 135 425 138 524 m 82 1008 q 244 1012 167 1011 q 411 992 322 1013 q 568 931 499 972 q 628 881 589 918 q 681 822 665 844 q 731 717 719 769 q 732 622 743 665 q 689 538 721 578 q 578 447 647 485 q 432 389 510 408 q 281 372 371 372 q 133 376 192 371 l 133 372 q 118 189 132 356 q 107 7 108 75 q 99 -11 107 -4 q 81 -18 92 -18 q 64 -10 71 -18 q 57 7 57 -3 q 69 193 58 78 q 83 375 81 332 q 82 668 90 490 q 68 964 69 928 q 58 982 60 971 q 65 999 58 992 q 82 1008 72 1007 z "},"Q":{"ha":1038,"x_min":57,"x_max":957,"o":"m 638 15 q 553 -4 597 4 q 403 -11 458 -19 q 263 35 324 1 q 163 119 201 69 q 100 228 125 169 q 66 355 75 288 q 58 488 57 422 q 68 619 58 553 q 214 894 97 808 q 351 962 278 942 q 519 992 425 982 q 528 990 524 992 q 549 997 538 999 q 853 826 750 961 q 957 486 957 692 q 858 157 957 279 q 686 33 793 76 q 838 -147 757 -60 q 844 -165 844 -154 q 836 -182 843 -175 q 819 -188 829 -189 q 801 -181 808 -187 q 638 15 714 -86 m 525 942 q 367 915 435 933 q 244 856 300 896 q 118 611 143 781 q 106 460 108 535 q 124 314 104 385 q 176 187 143 243 q 269 91 208 131 q 411 39 329 51 q 544 46 458 31 q 606 58 576 50 q 478 249 540 147 q 474 267 472 257 q 485 282 476 276 q 504 285 494 288 q 519 274 514 283 q 656 74 586 167 q 819 188 760 113 q 907 486 907 297 q 815 795 907 675 q 540 947 722 915 l 539 949 q 525 942 532 943 z "},"R":{"ha":953,"x_min":54,"x_max":872,"o":"m 207 432 q 286 431 247 433 q 499 475 415 451 q 744 624 683 528 q 761 757 779 681 q 481 960 722 913 q 122 967 319 990 q 124 960 124 963 q 134 731 125 886 q 146 492 143 575 q 140 267 147 421 q 133 44 133 108 q 126 27 133 35 q 108 19 118 19 q 91 27 99 19 q 83 44 83 35 q 92 269 83 100 q 96 492 99 411 q 85 729 94 574 q 74 957 76 885 l 74 963 q 54 982 57 965 q 59 1001 53 993 q 75 1011 65 1008 q 490 1008 300 1044 q 808 768 763 956 q 786 599 832 671 q 513 428 714 485 q 424 406 471 415 q 665 280 551 367 q 867 76 778 193 q 872 58 874 68 q 863 41 871 47 q 844 36 854 35 q 828 46 833 38 q 582 277 721 186 q 289 381 443 368 l 197 367 q 179 372 188 365 q 168 388 171 378 q 185 415 165 408 q 207 432 190 431 z "},"S":{"ha":885,"x_min":13,"x_max":799,"o":"m 719 844 q 533 942 629 913 q 338 953 438 972 q 163 854 238 933 q 121 799 142 832 q 96 742 97 763 q 147 653 88 682 q 278 622 188 633 q 363 613 299 619 q 478 599 428 607 q 571 578 528 592 q 792 376 749 526 q 799 255 808 310 q 753 156 789 200 q 670 80 718 111 q 563 29 622 49 q 317 0 451 -12 q 103 79 183 13 q 78 102 89 90 q 58 130 68 114 q 42 156 47 146 l 28 183 q 14 208 17 203 q 13 226 10 217 q 24 241 15 236 q 43 243 33 246 q 58 231 53 240 q 72 206 61 224 l 86 178 q 99 158 90 171 q 115 135 107 144 q 133 118 124 126 q 322 50 203 61 q 547 75 440 39 q 716 188 660 114 q 744 363 772 263 q 557 531 708 486 q 469 550 517 543 q 359 563 422 557 q 272 572 296 569 q 125 610 172 586 q 46 747 35 654 q 79 825 50 779 q 126 888 103 863 q 274 988 192 957 q 438 1010 356 1018 q 600 969 521 1001 q 750 883 679 938 q 760 867 758 878 q 755 849 761 857 q 738 839 749 840 q 719 844 728 838 z "},"T":{"ha":878,"x_min":0,"x_max":797,"o":"m 24 954 q 293 944 115 957 q 557 933 472 932 q 622 938 589 933 q 700 950 656 943 l 769 963 q 788 958 779 964 q 797 941 796 951 q 792 922 799 931 q 775 913 786 914 q 710 902 754 910 q 628 890 665 894 q 557 883 590 885 q 401 888 490 882 q 406 781 403 854 l 411 664 q 415 560 414 621 q 415 447 415 499 q 409 299 414 397 q 403 152 404 200 q 408 8 403 104 q 402 -10 408 -3 q 385 -19 396 -18 q 367 -13 375 -19 q 358 3 360 -7 q 353 152 353 103 q 360 301 354 201 q 365 447 365 401 q 365 561 367 500 q 362 666 364 622 q 357 783 360 710 l 353 890 l 289 896 q 26 904 118 908 q 8 911 15 904 q 0 928 0 918 q 7 947 0 939 q 24 954 14 954 z "},"U":{"ha":914,"x_min":46,"x_max":832,"o":"m 96 911 q 95 733 97 869 q 96 519 93 597 q 111 314 99 394 q 154 175 125 217 q 265 76 194 115 q 417 26 336 36 q 572 44 499 18 q 692 131 644 69 q 782 500 772 236 q 763 906 789 681 q 768 924 761 915 q 785 933 775 932 q 803 928 794 935 q 813 911 811 921 q 832 497 839 682 q 731 100 821 218 q 590 -3 675 28 q 411 -22 504 -33 q 240 33 321 -12 q 113 147 160 78 q 63 306 78 199 q 46 518 49 390 q 46 731 44 596 q 46 908 47 867 q 53 927 46 919 q 70 935 60 935 q 88 928 81 935 q 96 911 96 921 z "},"V":{"ha":793,"x_min":25,"x_max":711,"o":"m 72 989 l 171 658 q 290 225 256 376 q 325 111 297 199 q 343 58 335 81 q 349 76 346 69 l 385 140 q 417 200 406 178 q 443 272 439 249 q 463 351 451 317 q 517 500 471 376 q 568 646 551 593 l 594 738 q 631 856 615 810 q 665 947 646 901 q 678 960 669 957 q 697 960 688 964 q 710 947 707 956 q 710 928 714 938 q 677 840 692 885 q 642 725 663 796 q 615 632 622 654 q 563 482 603 588 q 510 335 524 378 q 492 264 500 304 q 461 181 486 235 q 426 115 450 156 q 393 54 401 71 q 390 47 392 51 q 388 33 389 42 l 385 18 q 372 -7 381 1 q 336 -21 358 -26 q 322 -14 328 -19 l 317 -8 q 313 1 315 -4 q 301 26 308 10 q 278 96 292 53 q 243 214 249 186 q 124 646 208 365 l 25 975 q 27 994 22 985 q 42 1006 32 1003 q 60 1003 51 1008 q 72 989 69 999 z "},"W":{"ha":1283,"x_min":25,"x_max":1201,"o":"m 72 974 q 171 644 135 811 q 200 475 179 607 q 232 311 217 371 q 268 168 239 286 l 278 126 q 296 167 286 143 q 338 274 311 201 q 511 811 417 486 l 536 900 l 547 939 l 551 951 q 552 956 551 954 q 554 960 553 958 q 556 963 556 961 q 572 974 561 971 q 608 961 592 976 q 628 935 618 951 q 657 865 643 910 q 688 743 676 806 q 831 228 747 433 l 831 225 q 833 219 832 222 q 836 210 835 215 q 840 199 838 206 q 845 186 843 193 q 850 172 847 179 l 856 157 l 869 125 q 893 183 879 146 q 911 229 901 204 l 926 274 q 933 296 933 293 q 1013 567 961 369 q 1097 842 1060 746 l 1125 908 q 1139 936 1135 931 q 1143 940 1140 939 l 1154 976 q 1167 990 1157 986 q 1186 992 1176 994 q 1200 979 1196 989 q 1201 960 1204 969 l 1174 878 l 1171 869 l 1169 864 l 1169 863 q 1167 858 1168 861 q 1163 854 1165 856 q 1154 849 1160 850 l 1144 822 q 1061 554 1110 739 q 981 279 1010 361 q 972 257 979 276 l 957 213 q 940 165 949 188 q 911 97 924 122 q 897 74 904 82 q 889 63 893 67 q 868 54 879 54 q 849 63 857 54 q 842 71 844 67 q 832 90 838 78 q 810 139 822 108 l 804 153 q 799 168 801 161 q 794 181 797 175 q 790 192 792 188 q 788 201 789 197 q 785 206 786 204 l 783 208 q 640 735 700 419 q 610 850 628 793 q 589 904 599 883 l 583 886 l 558 797 q 385 257 461 463 q 342 149 358 188 q 311 82 325 106 q 297 58 303 67 q 286 49 292 53 q 263 44 275 42 q 250 51 254 46 q 247 56 247 54 q 244 60 246 57 q 243 63 244 61 q 242 69 243 65 q 236 90 240 76 l 219 157 q 185 297 190 274 q 151 468 169 358 q 124 633 132 590 q 25 954 89 794 q 26 974 22 964 q 40 987 31 983 q 58 986 49 990 q 72 974 68 982 z "},"X":{"ha":863,"x_min":10,"x_max":782,"o":"m 401 500 q 231 759 313 650 q 43 958 150 868 q 35 976 36 965 q 41 994 35 986 q 58 1002 47 1001 q 76 997 68 1003 q 266 795 183 904 q 435 542 349 686 l 726 925 q 742 935 732 933 q 761 930 753 936 q 771 913 769 924 q 765 894 772 903 l 461 496 q 492 443 468 485 l 525 388 l 556 336 q 590 283 578 300 q 622 232 601 265 q 658 178 643 199 l 694 129 q 733 78 714 101 l 775 31 q 781 13 782 22 q 773 -4 781 3 q 756 -10 765 -11 q 739 -3 746 -10 q 617 153 679 64 q 525 292 554 243 l 429 454 l 54 -8 q 37 -17 47 -17 q 19 -12 26 -18 q 10 5 11 -6 q 15 22 10 15 l 401 500 z "},"Y":{"ha":844,"x_min":39,"x_max":764,"o":"m 758 956 q 704 879 728 918 q 649 783 679 839 q 601 697 619 726 l 506 531 l 389 332 q 282 165 349 264 q 158 -3 215 65 q 141 -10 151 -10 q 123 -5 131 -11 q 115 12 115 1 q 119 31 114 22 q 367 392 226 154 l 365 393 q 294 513 333 440 l 228 633 q 135 792 199 688 l 40 947 q 39 967 36 957 q 51 981 42 976 q 69 983 60 986 q 85 972 79 981 q 178 815 114 919 l 272 658 l 338 536 q 394 439 369 478 l 560 722 l 606 806 q 663 906 636 863 q 719 986 689 949 q 737 995 726 994 q 755 990 747 996 q 763 973 763 983 q 758 956 764 963 z "},"Z":{"ha":829,"x_min":0,"x_max":749,"o":"m 21 944 q 343 983 182 975 q 503 986 399 986 q 649 988 607 986 q 657 988 653 988 q 669 991 661 989 q 685 996 676 993 q 742 975 726 1004 q 743 953 747 965 q 738 940 742 947 l 722 918 q 675 860 706 896 l 594 769 l 367 528 q 151 276 233 386 q 89 183 124 240 q 58 126 68 149 q 50 107 53 113 l 50 104 q 89 86 57 89 q 158 89 94 86 q 726 85 535 106 q 743 75 736 83 q 749 57 750 67 q 739 40 747 47 q 721 35 731 33 q 161 39 550 54 q 85 36 93 36 q 1 90 18 43 q 3 121 -3 103 q 13 147 6 132 q 47 208 24 171 q 113 307 85 271 q 331 561 196 417 l 558 803 l 638 892 l 679 943 q 651 938 660 938 q 504 936 607 936 q 346 933 406 936 q 29 897 183 926 q 11 900 19 894 q 1 916 3 906 q 4 935 -1 926 q 21 944 10 943 z "},"[":{"ha":397,"x_min":72,"x_max":317,"o":"m 293 1000 l 217 997 q 165 996 179 996 q 150 994 156 994 q 135 958 142 985 q 124 876 126 928 q 122 721 122 851 l 122 272 q 126 3 124 113 q 131 -87 128 -56 q 133 -114 132 -104 l 135 -119 q 149 -140 142 -132 q 170 -151 157 -147 q 191 -157 183 -156 q 220 -160 199 -158 q 251 -162 242 -162 q 268 -172 261 -164 q 274 -190 275 -181 q 264 -207 272 -200 q 246 -212 256 -214 q 218 -210 242 -211 q 183 -206 194 -208 q 151 -197 171 -203 q 117 -177 132 -190 q 92 -144 103 -164 q 85 -121 88 -137 q 82 -92 83 -110 q 76 1 79 -56 q 72 271 74 101 l 72 721 q 74 879 72 853 q 88 971 78 935 q 126 1039 100 1022 l 136 1043 l 140 1043 l 146 1043 q 164 1044 151 1044 q 215 1047 182 1046 q 290 1050 217 1047 q 309 1043 301 1050 q 317 1026 317 1036 q 310 1008 317 1015 q 293 1000 303 1000 z "},"\\":{"ha":465,"x_min":-71,"x_max":385,"o":"m -24 990 q 43 806 -22 988 q 117 626 85 690 q 133 599 121 618 q 154 564 149 578 q 222 394 183 500 q 298 203 261 289 q 381 47 335 118 q 384 28 386 38 q 373 13 382 18 q 354 9 364 7 q 339 19 344 11 q 254 183 293 93 q 175 379 215 272 q 110 544 135 486 q 93 571 106 554 q 72 604 78 593 q -4 789 38 675 q -71 974 -69 969 q -69 992 -74 982 q -56 1005 -65 1001 q -37 1004 -47 1008 q -24 990 -28 1000 z "},"]":{"ha":339,"x_min":-15,"x_max":257,"o":"m 8 1024 q 118 1028 24 1024 q 186 1031 161 1031 q 208 1032 201 1032 l 215 1032 l 218 1032 l 219 1032 l 222 1032 q 225 1031 224 1031 q 235 1025 231 1029 q 247 999 243 1017 q 251 971 250 988 q 256 896 254 943 q 257 821 257 865 l 257 771 q 247 425 260 646 q 233 83 233 179 l 233 39 l 233 17 l 233 6 q 234 -7 233 -4 q 236 -28 235 -10 q 239 -69 238 -46 q 240 -78 239 -74 q 242 -89 240 -82 q 246 -103 244 -96 q 238 -156 253 -136 q 217 -169 231 -165 q 194 -174 207 -172 q 146 -178 176 -176 l 117 -178 q 86 -178 100 -178 l 74 -176 q 56 -169 63 -176 q 49 -151 49 -161 q 56 -133 49 -140 q 74 -126 64 -126 q 88 -127 75 -126 q 115 -128 100 -128 l 146 -128 q 188 -125 172 -128 q 199 -124 193 -124 l 199 -125 l 199 -124 q 200 -124 200 -124 q 197 -112 200 -119 q 189 -72 189 -74 q 186 -30 188 -49 q 184 -8 185 -11 q 183 3 183 -6 l 183 15 l 183 39 l 183 83 q 197 428 183 186 q 207 771 211 661 l 207 819 l 207 894 q 203 965 206 939 q 200 982 201 975 l 188 982 q 121 979 163 981 q 11 974 26 975 q -6 981 1 974 q -15 997 -14 988 q -8 1015 -15 1007 q 8 1024 -1 1022 m 199 -124 z "},"^":{"ha":624,"x_min":85,"x_max":542,"o":"m 89 617 l 271 897 q 275 906 274 900 l 279 919 q 285 935 282 928 q 335 976 300 978 q 382 931 368 974 q 389 908 385 922 q 394 889 392 894 q 540 606 506 667 q 542 586 544 596 q 530 572 539 576 q 511 569 521 567 q 496 581 501 572 q 350 867 461 644 q 344 883 347 874 q 338 903 340 893 q 335 915 336 914 q 333 922 333 919 q 331 918 332 921 q 313 869 315 874 l 131 592 q 115 580 125 582 q 97 583 106 578 q 85 599 88 589 q 89 617 83 608 z "},"_":{"ha":765,"x_min":-6,"x_max":685,"o":"m 18 -83 q 181 -82 69 -81 q 340 -79 283 -83 q 497 -60 375 -76 q 660 -46 597 -46 q 677 -53 669 -46 q 685 -71 685 -61 q 677 -88 685 -81 q 660 -96 669 -96 q 504 -110 603 -96 q 343 -129 386 -126 q 181 -132 286 -132 q 21 -133 71 -131 q 3 -126 11 -133 q -5 -110 -4 -119 q 1 -92 -6 -100 q 18 -83 8 -85 z "},"`":{"ha":322,"x_min":19,"x_max":242,"o":"m 63 1000 q 233 831 190 869 q 241 814 240 824 q 235 797 242 804 q 218 788 228 789 q 200 794 208 788 q 26 967 157 833 q 19 984 19 974 q 27 1001 19 994 q 45 1008 35 1008 q 63 1000 56 1008 z "},"a":{"ha":668,"x_min":22,"x_max":586,"o":"m 497 125 q 431 572 451 289 q 399 582 424 574 q 365 592 374 590 l 336 600 q 304 606 315 606 q 276 608 293 607 q 244 606 258 608 q 217 596 231 603 q 121 503 160 574 q 72 339 82 432 q 86 169 63 246 q 161 60 110 93 q 325 43 229 15 q 492 122 386 60 l 497 125 m 478 613 q 513 281 490 421 q 585 19 535 142 q 585 0 589 10 q 572 -13 582 -10 q 553 -13 563 -17 q 540 0 543 -10 q 511 76 525 38 q 339 -6 406 14 q 133 18 222 -39 q 40 151 67 61 q 23 344 13 242 q 78 529 33 446 q 197 643 124 613 q 256 657 226 654 q 322 653 286 660 q 375 641 357 646 q 432 624 393 636 q 451 636 438 635 q 469 630 461 636 q 478 613 476 624 z "},"b":{"ha":751,"x_min":57,"x_max":667,"o":"m 107 99 l 107 18 q 99 1 107 8 q 82 -7 92 -7 q 65 1 72 -7 q 57 18 57 8 q 68 988 57 664 q 76 1004 68 997 q 94 1011 83 1011 q 111 1003 104 1011 q 118 985 118 996 q 108 486 110 764 q 242 576 174 549 q 406 603 311 603 q 618 503 546 603 q 667 290 683 414 q 633 181 660 232 q 564 89 607 129 q 456 29 521 49 q 315 18 392 10 l 285 24 q 253 33 269 26 l 222 43 q 191 57 211 47 q 163 70 171 67 q 133 85 154 74 q 107 99 111 96 m 107 443 l 107 153 q 158 128 122 146 l 217 100 q 267 81 236 90 q 321 68 296 71 q 525 122 447 53 q 618 297 604 192 q 578 474 632 400 q 406 553 521 553 q 259 529 319 553 q 138 446 199 506 q 107 443 124 432 z "},"c":{"ha":619,"x_min":36,"x_max":539,"o":"m 497 457 q 420 520 451 497 q 341 561 389 543 q 254 572 293 579 q 138 471 186 558 q 85 281 90 386 q 124 107 81 171 q 264 47 171 38 q 332 67 294 50 q 386 94 369 83 q 451 136 397 100 q 470 140 460 142 q 486 129 481 138 q 490 110 492 121 q 479 94 488 100 q 460 83 475 93 q 439 69 444 72 l 418 56 q 394 42 403 46 l 372 31 q 346 18 357 22 l 322 8 q 295 1 308 4 q 269 -3 282 -1 q 83 79 146 -14 q 36 282 31 157 q 94 496 40 401 q 243 619 154 601 q 325 619 283 628 q 408 586 367 611 q 472 543 449 561 l 531 496 q 538 478 538 489 q 533 460 539 468 q 516 452 526 453 q 497 457 506 451 z "},"d":{"ha":682,"x_min":6,"x_max":601,"o":"m 571 972 q 571 868 569 924 q 574 775 572 813 q 581 669 576 738 q 586 572 585 603 q 593 310 590 486 q 601 39 596 132 q 594 22 601 29 q 578 13 588 14 q 560 19 568 13 q 551 36 553 26 q 549 104 550 68 q 376 18 471 57 q 181 -13 260 -25 q 56 58 103 -1 q 6 192 14 111 q 22 346 -1 272 q 96 492 46 426 q 215 586 146 557 q 539 521 368 651 l 536 569 q 531 667 535 597 q 525 774 526 738 q 522 868 524 811 q 521 972 521 925 q 528 990 521 983 q 547 997 536 997 q 564 990 557 997 q 571 972 571 982 m 540 456 q 235 542 374 600 q 134 460 178 517 q 69 332 90 404 q 56 197 50 263 q 94 89 63 131 q 357 65 171 -10 q 546 160 463 107 q 543 310 544 211 q 540 456 542 408 z "},"e":{"ha":721,"x_min":76,"x_max":639,"o":"m 125 278 q 588 469 344 403 q 411 600 543 572 q 215 526 299 624 q 126 299 138 435 q 125 278 125 288 m 619 442 q 603 422 617 426 q 126 222 350 353 q 183 92 138 139 q 415 65 260 13 q 572 163 486 89 q 591 169 581 169 q 608 160 601 168 q 613 142 614 153 q 606 126 613 132 q 432 18 511 44 q 147 57 246 -43 q 76 303 64 143 q 178 558 89 454 q 422 647 281 678 q 639 474 586 613 q 638 455 642 464 q 624 442 633 446 l 619 442 z "},"f":{"ha":478,"x_min":-35,"x_max":397,"o":"m 368 924 q 313 932 331 931 q 269 932 296 933 q 226 920 243 931 q 196 889 210 910 q 167 747 175 858 q 160 600 161 685 q 288 618 244 611 q 306 613 297 619 q 316 597 314 607 q 312 579 318 588 q 296 568 306 571 q 160 550 251 561 q 161 506 160 528 q 181 74 163 365 q 174 56 181 64 q 157 48 167 49 q 140 54 147 47 q 131 71 132 61 q 111 504 114 364 l 111 543 q -6 525 43 535 q -24 530 -15 524 q -34 546 -32 536 q -30 564 -36 556 q -14 575 -24 572 q 111 593 36 583 q 117 751 111 683 q 154 917 126 874 q 199 962 174 946 q 258 981 225 978 q 311 982 290 983 q 365 975 332 981 q 376 974 372 974 q 392 963 386 971 q 397 945 399 956 q 387 928 394 935 q 368 924 379 922 z "},"g":{"ha":708,"x_min":76,"x_max":621,"o":"m 564 614 q 506 618 557 615 q 438 621 454 621 q 383 619 421 621 q 320 610 346 618 q 272 589 294 601 q 197 499 232 565 q 146 354 161 432 q 147 213 131 272 q 211 136 164 154 q 376 161 268 113 q 543 254 428 183 q 575 247 563 267 q 564 614 582 414 m 613 631 q 621 174 638 372 q 572 -69 608 26 q 446 -222 526 -189 q 382 -239 415 -233 q 302 -243 349 -244 q 235 -241 256 -242 q 157 -233 214 -240 q 99 -226 100 -226 q 83 -217 89 -225 q 77 -199 76 -208 q 86 -183 78 -189 q 104 -176 94 -176 l 156 -183 q 215 -190 196 -187 q 269 -194 233 -192 q 328 -194 306 -196 q 378 -189 350 -193 q 426 -175 406 -185 q 526 -53 489 -151 q 571 178 560 36 l 574 217 q 568 213 572 214 q 396 115 450 140 q 192 89 269 58 q 101 194 121 118 q 97 364 81 271 q 155 524 114 449 q 247 631 196 600 q 306 657 275 647 q 378 669 338 667 q 442 671 419 671 q 513 667 464 671 q 569 664 561 664 q 589 653 582 663 q 604 645 597 651 q 613 631 611 639 z "},"h":{"ha":708,"x_min":72,"x_max":626,"o":"m 122 968 q 147 522 150 788 q 219 604 167 551 q 320 683 271 654 q 432 710 369 711 q 567 633 524 707 q 601 479 599 579 q 593 310 603 424 q 589 182 585 211 q 592 153 590 165 q 599 125 594 140 q 606 103 603 110 q 615 75 608 96 q 626 46 622 54 q 625 27 629 36 q 611 15 621 18 q 592 15 601 11 q 579 29 583 19 q 569 58 576 38 q 558 88 561 79 q 551 112 556 96 q 544 143 546 128 q 539 176 542 158 q 544 314 536 211 q 553 478 554 432 q 524 608 550 564 q 429 660 494 658 q 342 638 382 661 q 256 568 301 614 q 244 558 251 565 q 182 488 204 518 q 156 451 168 467 q 146 442 151 444 q 138 72 138 88 q 130 55 138 63 q 113 47 122 47 q 95 55 103 47 q 88 72 88 63 q 94 350 88 153 q 97 689 100 547 q 72 960 93 831 q 77 978 71 971 q 94 988 83 986 q 112 984 104 990 q 122 968 119 978 z "},"i":{"ha":288,"x_min":118,"x_max":207,"o":"m 189 599 q 188 444 185 543 q 188 288 189 336 q 177 160 185 243 q 168 54 169 76 q 159 37 167 43 q 141 31 151 31 q 124 40 131 32 q 118 57 118 47 q 128 163 121 81 q 138 290 136 246 q 138 444 140 336 q 139 601 135 547 q 148 619 140 613 q 166 624 156 625 q 183 616 176 624 q 189 599 189 608 m 199 897 q 203 893 199 897 q 207 879 207 889 q 199 862 207 869 q 182 854 192 854 q 165 862 172 854 q 157 879 157 869 q 165 897 157 889 q 182 904 172 904 q 199 897 192 904 z "},"j":{"ha":272,"x_min":-107,"x_max":190,"o":"m 153 596 q 172 246 164 463 q 181 136 174 211 q 190 21 188 61 q 188 -93 192 -19 q 168 -165 183 -126 q 124 -233 149 -212 q 36 -261 81 -269 q -33 -218 -1 -254 q -107 -81 -74 -172 q -106 -62 -110 -71 q -92 -49 -101 -53 q -73 -50 -82 -46 q -60 -64 -64 -54 q 3 -185 -31 -147 q 44 -212 24 -208 q 93 -194 67 -217 q 122 -147 107 -182 q 138 -87 135 -114 q 140 20 142 -17 q 131 131 139 57 q 122 243 124 200 q 103 593 114 456 q 109 610 103 603 q 126 619 115 618 q 144 613 136 619 q 153 596 151 607 m 135 860 q 139 857 135 860 q 143 843 143 853 q 135 826 143 833 q 118 818 128 818 q 101 826 108 818 q 93 843 93 833 q 101 860 93 853 q 118 868 108 868 q 135 860 128 868 z "},"k":{"ha":597,"x_min":83,"x_max":517,"o":"m 278 418 q 400 229 322 354 l 513 51 q 516 33 518 43 q 506 17 514 22 q 487 13 497 11 q 471 24 476 15 l 358 200 q 236 390 282 325 q 233 397 235 393 q 151 314 186 354 q 139 307 147 308 q 138 44 138 132 q 130 27 138 35 q 113 19 122 19 q 95 27 103 19 q 88 44 88 35 q 90 322 88 131 q 92 658 93 514 q 83 936 90 803 q 90 953 83 946 q 107 962 97 961 q 124 956 117 963 q 133 939 132 949 q 140 375 144 735 q 282 504 182 419 q 447 653 403 607 q 465 661 454 661 q 483 654 475 661 q 490 637 490 647 q 483 619 490 626 q 314 467 436 571 l 267 426 q 278 418 274 424 z "},"l":{"ha":231,"x_min":76,"x_max":150,"o":"m 126 961 q 142 728 140 854 q 136 493 142 596 q 131 262 129 389 q 150 33 133 135 q 145 15 151 22 q 128 5 139 7 q 110 9 118 3 q 100 25 103 15 q 83 261 85 131 q 86 494 81 392 q 92 726 93 599 q 76 956 92 849 q 81 974 75 965 q 98 983 88 982 q 117 978 108 985 q 126 961 125 972 z "},"m":{"ha":1004,"x_min":53,"x_max":922,"o":"m 126 618 q 128 483 129 554 l 175 525 q 260 596 225 569 q 354 656 313 636 q 447 671 408 681 q 522 563 501 657 q 525 547 524 556 q 607 608 576 588 q 690 649 638 628 q 794 672 742 669 q 811 674 800 672 q 833 676 826 675 q 885 663 865 678 q 913 611 904 647 q 922 539 921 582 q 917 349 926 465 q 903 221 911 289 l 886 94 q 878 24 879 36 q 868 7 876 14 q 850 1 860 0 q 833 11 840 3 q 828 29 826 19 q 838 99 829 42 q 853 225 846 157 q 867 353 861 293 q 874 536 876 467 q 865 599 871 575 q 854 624 860 619 q 836 626 850 628 q 818 625 831 626 q 797 622 804 622 q 705 602 750 621 q 631 564 660 583 q 550 504 603 544 q 532 499 542 497 q 535 381 536 449 q 504 60 532 214 q 493 44 501 50 q 475 40 485 38 q 459 50 465 42 q 454 68 453 58 q 486 382 482 221 q 474 551 488 488 q 433 624 460 617 q 375 611 413 629 q 290 557 340 594 q 207 488 254 529 q 144 432 147 435 q 126 426 138 426 q 103 21 124 285 q 94 3 101 10 q 76 -2 86 -3 q 59 6 65 -1 q 53 24 53 14 q 76 615 85 417 q 83 633 76 626 q 101 641 90 640 q 118 635 111 642 q 126 618 125 628 z "},"n":{"ha":689,"x_min":25,"x_max":607,"o":"m 103 496 q 103 51 124 324 q 94 34 101 40 q 76 28 86 28 q 59 37 65 29 q 53 54 53 44 q 65 254 63 168 q 58 447 67 340 q 25 640 49 554 q 27 659 22 650 q 42 671 32 668 q 60 669 51 674 q 72 654 69 664 q 94 556 86 606 l 125 592 q 153 617 133 601 q 203 650 172 633 q 353 707 263 685 l 369 711 q 388 716 385 715 q 407 719 392 717 q 429 722 422 722 q 450 722 436 722 q 474 718 464 721 q 494 710 483 715 q 517 697 506 706 q 579 574 563 663 q 589 401 592 508 q 582 226 589 392 q 585 100 578 133 q 589 81 586 90 l 597 58 q 607 35 603 44 q 606 16 610 25 q 592 3 601 7 q 573 4 582 0 q 560 18 564 8 q 552 38 558 24 q 542 67 546 53 q 535 92 538 81 q 533 229 529 132 q 540 403 540 393 q 531 564 542 503 q 486 658 518 635 q 449 672 471 669 q 413 671 426 674 q 364 660 400 668 q 228 608 281 639 q 197 589 208 597 q 175 572 186 582 l 158 556 q 140 533 154 551 q 117 504 125 514 q 103 496 111 497 z "},"o":{"ha":692,"x_min":56,"x_max":611,"o":"m 279 640 q 290 643 285 643 q 369 640 344 642 q 438 627 393 639 q 515 590 483 615 q 588 495 564 554 q 610 375 613 436 q 593 250 608 314 q 503 79 565 153 q 361 -10 442 6 q 241 -3 296 -21 q 149 52 186 14 q 88 141 113 90 q 56 250 64 192 q 58 403 44 328 q 118 543 72 479 q 236 633 164 607 q 279 640 253 639 m 322 593 q 319 592 321 592 q 281 590 318 592 q 253 586 263 590 q 127 461 167 556 q 104 257 88 367 q 187 85 121 149 q 353 40 253 21 q 468 114 415 51 q 546 263 521 176 q 556 428 571 347 q 485 551 542 508 q 322 593 435 589 z "},"p":{"ha":699,"x_min":65,"x_max":618,"o":"m 115 94 q 133 -307 118 -129 q 127 -326 133 -318 q 110 -334 121 -333 q 92 -328 100 -335 q 83 -312 85 -322 q 65 141 67 -115 q 69 593 64 397 q 77 611 69 604 q 95 618 85 618 q 113 610 106 618 q 119 593 119 603 l 117 469 q 197 544 158 519 q 296 586 235 569 q 543 532 460 631 q 617 282 611 450 q 617 259 617 279 q 618 232 618 239 q 617 208 618 225 q 612 180 615 190 q 602 154 608 169 q 586 126 596 139 q 469 49 547 75 q 321 24 390 22 q 242 38 283 25 q 181 61 201 50 l 115 94 m 115 147 q 128 144 122 147 q 150 132 132 142 q 173 120 168 122 q 193 110 178 118 q 214 100 208 103 l 233 92 q 256 83 247 86 l 275 79 q 299 75 288 76 q 321 74 310 74 q 450 94 383 72 q 547 157 517 117 q 568 212 565 181 q 567 282 571 243 q 506 500 563 432 q 310 539 442 575 q 222 503 254 524 q 154 436 193 483 q 137 427 147 428 q 119 432 126 426 l 117 435 q 115 147 114 264 z "},"q":{"ha":676,"x_min":19,"x_max":596,"o":"m 539 507 q 375 560 432 550 q 218 526 278 575 q 135 422 175 492 q 78 276 94 351 q 76 136 58 200 q 151 44 94 72 q 272 35 204 18 q 339 61 303 43 q 398 94 375 79 q 464 139 421 108 l 524 181 q 528 182 526 182 q 539 507 528 367 m 596 574 q 578 298 581 442 q 581 -46 576 154 q 585 -325 585 -246 q 577 -342 585 -335 q 560 -350 569 -350 q 542 -342 550 -350 q 535 -325 535 -335 q 532 -92 535 -244 q 528 124 529 61 l 497 103 l 464 78 q 431 56 454 71 q 394 33 408 42 l 358 17 q 320 -1 339 6 q 283 -12 301 -8 q 207 -19 251 -22 q 129 0 163 -17 q 49 74 76 26 q 19 176 21 122 q 29 288 18 229 q 92 447 47 369 q 188 565 136 524 q 382 608 264 626 q 544 558 444 599 l 546 579 q 556 595 547 589 q 574 601 564 601 q 590 592 583 600 q 596 574 596 583 z "},"r":{"ha":524,"x_min":76,"x_max":443,"o":"m 140 399 q 138 279 140 342 l 131 139 q 126 24 128 63 q 118 7 125 14 q 101 1 111 0 q 83 8 90 1 q 76 26 76 15 l 83 175 q 90 346 89 294 q 89 486 92 397 q 76 647 86 575 q 81 665 75 657 q 98 675 88 674 q 117 670 108 676 q 126 653 125 664 q 139 479 136 574 q 414 658 251 628 q 432 656 424 661 q 442 640 440 650 q 439 621 444 629 q 422 611 433 613 q 269 543 333 593 q 149 406 204 493 q 140 399 146 401 z "},"s":{"ha":617,"x_min":6,"x_max":528,"o":"m 488 665 q 436 661 482 665 q 369 654 390 657 q 308 644 347 651 q 240 631 271 639 q 85 503 94 590 q 92 450 81 467 q 165 407 107 428 q 296 368 168 406 q 367 344 338 356 q 432 315 397 333 q 491 269 467 296 q 528 210 515 243 q 517 99 549 150 q 433 31 490 60 q 232 -17 340 -14 q 187 -13 210 -17 q 139 -1 164 -10 q 100 13 114 7 q 56 32 86 18 q 19 49 26 46 q 6 62 10 53 q 7 81 3 71 q 20 94 11 90 q 39 93 29 97 q 78 76 49 90 q 119 58 107 63 l 153 46 q 194 35 176 38 q 232 33 213 33 q 411 75 328 35 q 475 126 457 97 q 481 193 494 156 q 415 267 464 239 q 282 321 365 296 q 149 360 153 358 q 50 422 75 386 q 35 508 29 454 q 226 678 50 629 q 299 694 258 688 q 363 703 340 701 q 433 710 386 706 q 482 715 479 715 q 501 709 493 715 q 509 692 508 703 q 503 674 510 682 q 488 665 497 667 z "},"t":{"ha":407,"x_min":-83,"x_max":326,"o":"m 164 854 q 163 650 157 776 q 301 653 235 653 q 319 645 311 653 q 326 628 326 638 q 319 610 326 618 q 301 603 311 603 q 164 601 235 603 q 168 419 169 479 q 162 322 167 388 q 157 226 157 256 q 164 135 157 196 q 183 83 174 93 q 206 74 190 78 q 211 72 208 72 q 217 70 214 71 q 224 69 221 69 q 244 64 236 67 q 258 51 254 60 q 259 32 263 42 q 247 18 256 22 q 228 17 238 14 q 213 21 222 19 l 193 25 q 150 47 165 33 q 117 126 128 68 q 108 224 108 192 q 113 326 108 257 q 118 419 118 396 q 115 600 119 481 q -57 592 38 597 q -74 599 -67 592 q -83 615 -82 606 q -76 633 -83 625 q -60 642 -69 640 q 113 649 35 646 q 114 857 108 776 q 123 874 115 868 q 141 880 131 881 q 158 872 151 879 q 164 854 164 864 z "},"u":{"ha":692,"x_min":40,"x_max":611,"o":"m 560 622 l 560 621 l 560 622 m 107 643 q 90 335 90 489 q 103 165 90 232 q 140 68 115 90 q 185 51 150 58 q 265 44 219 44 q 347 49 310 43 q 397 61 383 53 q 436 108 411 69 q 539 468 529 246 q 544 568 542 532 q 547 617 546 599 q 550 633 549 626 q 552 640 551 638 q 554 646 553 643 q 565 657 558 653 q 597 653 583 665 q 607 635 604 646 q 611 604 610 624 q 607 519 611 574 q 604 484 606 503 q 601 450 603 465 q 597 422 599 435 q 595 402 596 410 q 594 393 594 394 q 600 32 579 233 q 594 13 600 21 q 577 5 588 6 q 559 10 567 4 q 550 26 551 17 q 539 200 542 121 q 478 81 514 136 q 422 19 446 33 q 354 -1 401 6 q 264 -6 313 -7 q 175 4 214 -4 q 107 32 128 13 q 54 157 69 65 q 40 335 42 231 q 57 649 39 478 q 67 665 58 658 q 85 670 75 671 q 101 661 94 669 q 107 643 107 653 z "},"v":{"ha":628,"x_min":47,"x_max":546,"o":"m 94 622 q 185 326 122 518 q 260 94 249 133 q 283 13 271 60 q 285 10 283 11 q 288 17 286 14 q 318 90 313 75 q 404 340 336 135 q 500 592 457 500 q 514 603 504 600 q 533 603 524 607 q 545 589 542 599 q 544 569 549 579 q 451 325 503 482 q 365 71 383 117 q 332 -3 358 57 q 329 -12 331 -7 q 326 -25 328 -17 l 324 -43 q 278 -89 313 -87 q 243 -68 254 -89 q 238 -39 239 -57 l 238 -25 l 238 -15 q 236 -1 238 -6 l 213 81 q 138 313 201 118 q 47 611 74 507 q 49 629 44 621 q 65 640 54 638 q 83 638 75 643 q 94 622 92 633 z "},"w":{"ha":926,"x_min":29,"x_max":844,"o":"m 79 619 l 108 439 q 140 283 118 381 q 186 107 161 185 q 210 40 201 60 q 229 4 219 17 q 247 42 238 17 q 299 174 269 90 q 374 406 353 329 q 393 501 379 428 q 401 539 399 528 q 406 553 404 547 q 413 561 408 558 q 435 571 421 572 q 460 553 450 569 q 468 532 464 544 q 482 475 474 513 q 508 310 485 464 q 539 142 526 194 q 554 83 547 104 l 563 65 q 587 58 572 58 q 611 64 601 58 q 613 67 611 65 l 621 83 l 643 144 q 703 326 668 213 l 740 456 l 778 578 q 797 643 792 626 q 810 657 801 653 q 829 658 819 661 q 843 645 839 654 q 844 626 847 636 q 825 563 839 610 l 788 440 l 750 313 q 690 128 714 193 q 665 64 676 88 q 656 42 660 50 q 640 25 649 29 q 588 8 618 8 q 535 24 557 8 q 507 67 519 35 q 490 131 499 90 q 460 303 481 175 q 435 456 440 424 q 421 394 428 417 q 344 157 403 322 q 293 22 314 68 q 271 -24 281 -7 q 258 -40 264 -35 q 235 -53 247 -51 q 189 -25 210 -54 q 164 21 176 -8 q 139 93 156 42 q 92 272 114 171 q 60 429 69 372 l 29 611 q 34 629 28 621 q 50 640 40 638 q 68 635 60 642 q 79 619 76 629 z "},"x":{"ha":619,"x_min":25,"x_max":539,"o":"m 310 303 q 69 -29 146 103 q 55 -40 65 -37 q 36 -38 44 -43 q 25 -23 28 -33 q 28 -4 22 -12 q 281 346 106 132 q 76 600 176 494 q 69 617 69 607 q 77 635 69 628 q 95 642 85 642 q 113 633 106 642 q 314 385 211 529 q 475 589 424 519 q 491 599 481 597 q 510 594 501 600 q 519 577 518 588 q 514 558 521 567 q 343 343 460 485 l 535 49 q 538 29 540 39 q 527 14 536 19 q 508 10 518 8 q 493 21 499 13 q 310 303 351 243 z "},"y":{"ha":667,"x_min":11,"x_max":585,"o":"m 585 607 q 519 471 564 557 l 453 340 q 422 268 425 281 q 396 185 417 240 q 110 -278 313 -22 q 93 -287 103 -286 q 75 -282 83 -289 q 65 -265 67 -275 q 71 -247 64 -256 q 272 44 199 -86 q 201 172 260 69 q 133 306 156 254 q 98 392 124 328 q 54 497 72 456 q 14 576 36 538 q 11 596 8 586 q 23 610 14 606 q 42 613 32 615 q 56 601 51 610 q 99 517 79 561 q 144 409 118 474 q 178 325 169 344 q 244 196 199 278 l 300 97 q 349 204 328 150 q 375 278 369 256 q 408 360 378 296 q 476 494 421 388 q 538 626 518 575 q 551 639 542 635 q 570 640 561 643 q 583 626 579 636 q 585 607 588 617 z "},"z":{"ha":704,"x_min":29,"x_max":624,"o":"m 54 618 q 160 622 86 618 q 267 625 228 625 q 497 629 435 621 q 506 631 501 629 q 517 635 510 632 q 532 642 525 639 q 560 647 549 647 q 593 628 582 647 q 596 608 599 618 q 594 603 594 606 q 592 599 593 601 q 588 594 590 597 l 576 582 l 543 544 l 494 492 q 200 178 278 267 l 149 122 l 135 107 l 136 107 q 278 114 229 111 q 600 117 500 122 q 617 108 610 115 q 623 90 624 100 q 615 74 622 81 q 597 67 607 67 q 279 64 511 72 q 139 58 213 61 q 96 56 108 57 l 83 56 l 79 56 l 75 56 q 72 57 74 56 q 67 58 69 57 q 57 71 60 63 q 56 89 53 79 q 58 93 57 92 q 60 97 58 94 q 64 101 61 99 l 76 115 l 113 156 l 163 211 l 164 211 q 458 525 240 299 l 507 578 l 510 581 q 503 579 506 581 q 267 575 438 572 q 161 572 232 576 q 54 568 88 568 q 37 576 44 568 q 29 593 29 583 q 37 610 29 603 q 54 618 44 618 z "},"{":{"ha":389,"x_min":-17,"x_max":307,"o":"m 306 1028 q 305 1023 306 1028 q 294 1014 303 1018 q 274 1006 286 1010 l 267 1003 q 256 999 260 1000 q 229 985 238 992 q 174 818 176 939 q 175 713 172 783 q 178 614 179 644 q 153 492 174 553 q 90 394 132 431 q 42 375 78 383 q 82 353 81 354 q 103 336 90 346 l 126 319 l 143 306 q 182 229 167 281 q 194 180 190 204 q 199 129 199 156 q 198 88 199 103 q 194 42 197 72 q 190 4 190 11 q 194 -99 186 -53 q 239 -199 203 -146 q 242 -217 244 -207 q 232 -233 240 -228 q 213 -237 224 -239 q 197 -226 203 -235 q 147 -110 157 -164 q 142 8 136 -56 q 144 47 142 18 q 148 90 147 76 q 149 127 149 103 q 145 172 149 151 q 135 215 142 193 q 107 271 122 256 q 94 281 101 276 q 75 294 88 286 l 51 314 q 43 319 47 317 l 32 325 q 18 332 25 328 q -17 383 -19 351 q 4 415 -14 404 q 29 424 14 421 q 57 431 56 429 q 107 511 89 460 q 128 617 125 563 q 126 710 129 644 q 124 819 122 782 q 196 1021 128 961 q 238 1044 211 1035 l 257 1051 q 272 1058 267 1056 q 292 1059 282 1063 q 306 1047 301 1056 q 306 1028 310 1038 z "},"|":{"ha":221,"x_min":68,"x_max":139,"o":"m 118 1040 q 139 750 136 914 q 138 463 142 603 q 138 161 136 413 q 135 -140 139 -90 q 127 -157 135 -150 q 109 -164 119 -164 q 92 -156 99 -164 q 85 -137 85 -149 q 89 163 90 -87 q 88 463 88 413 q 89 749 92 589 q 68 1032 86 910 q 73 1051 67 1043 q 90 1061 79 1060 q 108 1056 100 1063 q 118 1040 117 1050 z "},"}":{"ha":493,"x_min":24,"x_max":413,"o":"m 57 1044 q 176 959 138 1011 q 228 835 215 907 q 236 706 233 797 q 247 574 239 619 q 290 447 263 482 q 339 408 303 431 q 371 400 340 407 q 396 390 388 396 q 413 354 415 376 q 388 322 410 332 q 361 317 378 318 l 340 315 q 332 313 333 314 q 290 263 308 296 q 266 197 274 232 q 257 142 258 163 q 256 76 256 121 q 257 17 257 32 q 226 -119 256 -60 q 114 -229 197 -178 q 96 -233 106 -235 q 81 -222 86 -231 q 77 -203 75 -212 q 89 -187 79 -193 q 183 -95 160 -143 q 208 17 207 -47 q 208 74 208 28 q 208 145 207 121 q 219 210 210 169 q 246 285 228 251 q 304 354 269 331 q 322 361 311 358 q 311 367 315 364 q 251 417 269 394 q 197 565 217 463 q 186 704 189 614 q 178 828 185 792 q 138 929 168 888 q 38 997 107 971 q 25 1011 29 1001 q 24 1030 21 1021 q 38 1043 28 1039 q 57 1044 47 1047 z "},"~":{"ha":704,"x_min":31,"x_max":622,"o":"m 33 486 q 158 608 94 590 q 324 550 231 628 l 351 521 q 374 501 364 507 q 494 488 443 463 q 576 588 542 511 q 590 601 581 597 q 609 600 600 604 q 622 586 618 596 q 621 568 625 576 q 517 443 579 475 q 349 460 442 406 q 315 488 333 468 q 290 511 294 508 q 172 560 219 574 q 75 461 126 547 q 60 450 71 453 q 42 452 50 447 q 31 467 33 457 q 33 486 28 478 z "},"":{"ha":303,"x_min":81,"x_max":221,"o":"m 219 942 l 175 831 q 126 719 144 757 q 113 706 122 710 q 94 707 103 703 q 81 721 85 711 q 82 739 78 731 l 128 853 q 175 961 158 926 q 189 974 179 971 q 208 974 199 978 q 220 960 217 969 q 219 942 224 950 z "},"":{"ha":289,"x_min":69,"x_max":207,"o":"m 207 933 q 163 819 193 900 q 115 696 133 739 q 103 683 113 686 q 83 683 93 679 q 70 696 74 686 q 71 715 67 706 l 117 839 l 160 953 q 174 965 164 961 q 192 966 183 969 q 206 953 201 963 q 207 933 210 943 z "},"":{"ha":481,"x_min":32,"x_max":399,"o":"m 32 701 q 113 942 81 860 q 126 954 117 950 q 145 955 136 958 q 158 942 154 951 q 160 922 163 932 q 79 688 126 843 q 67 673 76 678 q 49 671 58 668 q 34 683 39 674 q 32 701 29 692 m 268 681 q 314 839 283 738 l 351 969 q 363 984 354 979 q 382 986 372 989 q 397 974 392 983 q 399 956 401 965 l 361 825 q 315 667 331 724 q 303 652 313 657 q 285 650 294 647 q 270 662 275 653 q 268 681 265 671 z "},"":{"ha":463,"x_min":25,"x_max":381,"o":"m 165 933 q 117 828 144 894 l 71 718 q 58 705 67 708 q 39 706 49 701 q 26 719 29 710 q 26 738 22 728 l 71 847 q 121 956 97 913 q 136 968 126 965 q 155 966 146 971 q 167 951 164 961 q 165 933 169 942 m 379 910 q 285 707 340 835 q 272 694 281 697 q 253 694 263 690 q 240 708 243 699 q 240 726 236 717 q 335 932 297 861 q 350 944 340 942 q 369 942 360 947 q 381 928 378 938 q 379 910 383 918 z "},"":{"ha":1389,"x_min":0,"x_max":0,"o":""}}}
